<svg xmlns="http://www.w3.org/2000/svg" viewBox="55 50 1150 1150" width="1150" height="1150"><rect x="55" y="50" width="1150" height="1150" rx="150" fill="#1B74F6"/><rect x="330" y="902" width="120" height="162" rx="25" fill="#cfe2fc"/><rect x="490" y="820" width="120" height="310" rx="25" fill="#cfe2fc"/><rect x="650" y="715" width="120" height="402" rx="25" fill="#cfe2fc"/><rect x="810" y="615" width="120" height="437" rx="25" fill="#cfe2fc"/><path d="M618.05 99.815c3.35-.002 6.7-.02 10.05-.04 19.716-.051 39.303 1.15 58.838 3.913l3.59.507C781.229 117.589 868.146 156.14 937 217l4.063 3.5a643 643 0 0 1 26.812 25.25l2.414 2.4c4.776 4.788 9.298 9.72 13.71 14.85q2.183 2.413 4.376 4.813c15.41 17.139 29.172 35.817 41.625 55.187l2.95 4.535c25.15 39.158 44.393 80.959 58.05 125.465l1.723 5.598c4.333 15.146 6.498 27.234-4.535 39.715-7.592 6.685-14.276 7.923-24.188 6.687-15.171-5.754-18.466-16.7-22.687-31.062C1024.602 417.496 997.208 362.014 959 317q-2.38-2.932-4.75-5.875c-3.516-4.296-7.168-8.445-10.914-12.543a339 339 0 0 1-5.55-6.316c-4.092-4.611-8.355-8.982-12.723-13.328l-2.303-2.315c-4.756-4.748-9.66-9.24-14.76-13.623l-3.464-3.07C841.498 204.48 763.814 170.164 681 158l-3.24-.5c-18.687-2.777-37.471-2.811-56.322-2.875l-3.748-.024c-23.505-.116-46.766 1.667-69.94 5.712l-3.744.643C493.564 169.882 443.316 187.359 400 215l-3.546 2.215C382.41 226.093 368.94 235.584 356 246l-2.601 2.047c-20.574 16.218-40.292 34.092-57.4 53.953-.928 1.06-1.857 2.12-2.815 3.21-19.365 22.314-36.47 46.177-51.184 71.79l-2.54 4.403C189.773 469.187 169.1 571.685 179 672l.309 3.155c.742 7.305 1.668 14.575 2.69 21.845l.464 3.357C194.449 785.047 229.497 866.327 283 933l2.29 2.914c3.373 4.284 6.81 8.282 10.71 12.086l3.625 4.125c4.852 5.418 9.94 10.589 15.063 15.75l2.485 2.524c4.06 4.068 7.94 7.53 12.827 10.6a178 178 0 0 1 5.188 4.689C340.623 990.693 346.22 995.4 352 1000c1.306 1.05 2.612 2.1 3.957 3.184 11.278 8.944 22.93 17.055 35.043 24.816l4.418 2.832c17.877 11.17 36.66 20.904 55.582 30.168l3.59 1.86c5.852 2.84 11.828 5.306 17.848 7.765l3.564 1.485c6.31 2.582 12.295 4.538 18.998 5.89 3.12.869 6.22 1.794 9.323 2.716 36.028 10.677 73.923 18.098 111.642 17.257C619 1098 619 1098 621 1099c52.084 2.627 114.172-8.365 161.176-32.11 3.824-1.89 3.824-1.89 8.692-3.34 23.265-7.028 46.345-22.721 66.132-36.55l3.422-2.38c14.432-10.17 28.356-20.916 41.578-32.62l2.762-2.422c7.085-6.347 13.815-13.052 20.55-19.765l2.86-2.845C987.582 907.42 1062.374 793.127 1056 704c-3-1-3-1-5.347.696-.896.8-1.792 1.603-2.715 2.429-8.493 7.154-15.54 11.17-26.938 9.875-9.324-3.686-14.984-8.32-18-18-1.005-12.357 2.79-19.37 11.313-28.062A390 390 0 0 0 1029 655l7-7 3.438-3.937c3.69-4.21 7.605-8.106 11.562-12.063l3.375-3.875c3.606-4.103 7.385-7.92 11.293-11.73C1068 614 1068 614 1070.04 611.34c6.082-7.258 16.267-7.986 24.96-6.465 9.119 3.876 14.475 11.524 20.55 19.106 2.756 3.396 5.595 6.708 8.45 10.019a683 683 0 0 1 12.73 15.235c2.51 3.059 5.076 6.068 7.645 9.078 26.025 30.673 26.025 30.673 20.125 48.125-6.856 9.77-13.772 13.476-25.5 12.562-8.551-2.137-12.565-4.89-17.93-11.855C1119 705 1119 705 1114 704c-1.863 3.823-2.414 7.876-3.043 12.059l-.553 3.557-.591 3.822C1094.892 815.245 1052.919 902.94 993 974l-2.8 3.328c-11.354 13.372-23.364 26.018-35.762 38.422l-3.748 3.785c-6.931 6.942-14 13.383-21.69 19.465a1054 1054 0 0 0-6.687 5.813C850.89 1106.043 756.266 1143.67 663 1152l-3.104.293c-11.2.939-22.413.907-33.646.895l-3.167-.002c-15.782-.025-31.39-.356-47.083-2.186l-3.225-.374C504.19 1142.395 435.655 1119.864 377 1083l-4.628-2.847c-10.741-6.675-21.133-13.735-31.372-21.153l-4.793-3.445c-8.674-6.278-17.043-12.774-25.093-19.84-2.756-2.403-5.563-4.694-8.426-6.965-11.431-9.308-21.874-19.856-32.313-30.25-.733-.73-1.467-1.457-2.222-2.208-4.588-4.602-8.906-9.376-13.153-14.292a1205 1205 0 0 0-4.75-5.125c-4.701-5.161-9.036-10.54-13.3-16.066a464 464 0 0 0-6.055-7.65C213.879 931.916 199.153 908.812 186 885l-1.543-2.778c-29.985-54.422-51.302-118.516-57.097-180.525-.326-3.353-.8-6.626-1.36-9.946-19.881-125.083 14.76-263.816 88-371.75l2.797-4.07c12.544-18.02 26.143-35.196 40.938-51.418a265 265 0 0 0 5.19-5.957c5.53-6.331 11.563-12.186 17.513-18.117l3.603-3.615C289.869 231 295.71 225.32 302 220l3.028-2.633c8.729-7.475 17.78-14.471 26.972-21.367l3.786-2.847c81.239-60.387 181.1-93.345 282.265-93.338" fill="#fff"/><path d="M636 333c5.169 6.711 7.132 10.847 7.091 19.147l-.014 4.572-.03 5.034-.038 10.851-.024 5.834q-.029 9.015-.029 18.028l-.001 3.072v12.549c0 11.882-.017 23.764-.082 35.645q-.078 14.153-.042 28.305.02 7.49-.043 14.979c-.046 5.572-.03 11.141.001 16.713l-.086 5.01c.17 12.443.17 12.443 6.17 16.684L654 532l3.25 2.5c5.788 3.157 10.402-.203 15.625-3.345l2.687-1.655 5.918-3.566 3.189-1.931c5.872-3.531 11.791-6.982 17.706-10.441l7.449-4.363L717 505l3.213-1.88a7181 7181 0 0 1 40.662-23.589 5992 5992 0 0 0 15.937-9.219 6637 6637 0 0 1 20.376-11.75l5.105-2.933c9.763-5.453 16.783-9.138 28.019-5.067 6.816 4.506 11.215 9.79 12.063 18.126-1.347 15.493-12.198 21.587-24.563 28.5l-3.479 1.976q-3.508 1.99-7.021 3.97a2617 2617 0 0 0-13.937 7.928l-5.094 2.907c-7.862 4.501-15.678 9.083-23.5 13.656a3193 3193 0 0 1-15.406 8.937c-7.586 4.386-15.132 8.837-22.668 13.308-8.492 5.027-17.042 9.951-25.613 14.842-20.903 11.983-20.903 11.983-21.906 21.226-2.952 22.639-15.48 40.305-36.188 50.062-20.486 7.352-42.771 5.246-60.094-8.445-16.965-14.74-26.05-36.029-21.906-58.555 5.88-20.033 16.31-33.655 35-43 1.487-2.974 1.125-5.65 1.125-8.969l.007-4.528-.006-5.003.006-5.243q.006-5.656.006-11.313.005-8.952.03-17.903l.007-3.051.016-6.178c.035-13.897.062-27.794.059-41.69q-.002-14.053.051-28.106.029-7.434.016-14.87c-.01-5.537.011-11.074.039-16.611l-.03-4.953c.094-10.354.828-20.721 10.674-26.582 9.678-5.419 18.956-3.909 28 2M311 730c3.593 5.389 4.073 10.12 1.812 16.188-3.804 5.903-9.241 8.092-15.55 10.816l-5.174 2.244-5.4 2.314-5.366 2.327c-27.477 11.87-27.477 11.87-36.322 6.111-4.274-5.698-5.353-10.367-2.812-17.188 3.89-6.036 9.548-8.232 15.988-11.035l5.447-2.381 2.832-1.223c2.84-1.228 5.677-2.466 8.512-3.706 27.24-11.861 27.24-11.861 36.033-4.467m79.86-443.152 2.89 3.215 3.152 3.484L400 297q2.654 2.908 5.312 5.813c18.225 20.127 18.225 20.127 15.625 30.375-3.035 5.972-5.964 7.4-12.437 8.75-8.815.122-13.029-5.138-18.688-11.313-.71-.755-1.422-1.51-2.154-2.29-3.39-3.648-6.082-7.041-8.658-11.335a986 986 0 0 0-6-5c-12.384-13.237-12.384-13.237-11-22 6.77-13.95 18.67-13.3 28.86-3.152m239.015-94.16c5.728 6.233 5.566 12.626 5.523 20.754l.009 3.637q.003 3.798-.016 7.597c-.016 3.877 0 7.752.019 11.627q-.003 3.695-.012 7.388l.019 3.51c-.072 8.25-1.511 11.893-7.417 17.799-6.911 2.303-12.203 1.32-18-3-4.021-5.66-3.433-12.004-3.398-18.66l-.009-3.706q-.003-3.868.016-7.737c.016-3.948 0-7.897-.019-11.844q.003-3.762.012-7.525l-.019-3.577c.072-8.344 1.467-13.086 8.417-17.951 5.16-1.72 10.197-1.059 14.875 1.688M267.688 496.813l5.283 1.04 5.103 1.041 4.613.933c7.52 2.045 13.68 4.274 16.313 12.173.505 6.693-.517 10.913-5.75 15.313-6.993 3.63-12.959 2.452-20.497.957l-2.938-.582q-3.066-.61-6.13-1.239c-3.106-.633-6.216-1.242-9.328-1.85q-2.99-.6-5.978-1.205c-1.798-.361-3.597-.725-5.451-1.097-7.613-2.004-11.81-3.433-15.928-10.297-1.178-5.97-1.743-10.01 2-15 10.782-9.05 26.11-2.767 38.688-.187" fill="#fff"/></svg>